<?xml version="1.0" encoding="utf-8"?>
<!-- Generator: Adobe Illustrator 16.0.0, SVG Export Plug-In . SVG Version: 6.00 Build 0)  -->
<!DOCTYPE svg PUBLIC "-//W3C//DTD SVG 1.1//EN" "http://www.w3.org/Graphics/SVG/1.1/DTD/svg11.dtd">
<svg version="1.1" id="Layer_1" xmlns="http://www.w3.org/2000/svg" xmlns:xlink="http://www.w3.org/1999/xlink" x="0px" y="0px"
	 width="612px" height="792px" viewBox="0 0 612 792" enable-background="new 0 0 612 792" xml:space="preserve">
<path fill="none" stroke="#FFF200" stroke-width="0.25" stroke-miterlimit="10" d="M350.201,74.111"/>
<path d="M523.821,295.583L411.547,407.857l-67.36-67.361l71.595-71.594l15.057-15.05v-0.006l-18.286-18.279l-69.015-69.008
	l25.63-25.63l-18.484-18.486l-25.625,25.624l-24.774-24.768l-18.492,18.48l24.78,24.779l-68.158,68.158l-18.721,18.728
	l87.877,87.877l-68.158,67.385L127.137,296.433l-18.479,18.492l129.703,129.703l86.26-86.26l86.696,86.703l130.99-131.002
	L523.821,295.583z M256.894,253.203l68.164-68.164l69.599,68.43l-69.173,68.748L256.894,253.203z"/>
<line fill="none" x1="412.552" y1="235.567" x2="468.494" y2="291.509"/>
<path fill="none" stroke="#FFF200" stroke-width="0.25" stroke-miterlimit="10" d="M306.554,279.837"/>
<polygon fill="#EE3838" points="108.922,129.64 108.922,129.634 108.922,129.634 108.922,129.634 108.922,129.64 101.394,150.955 
	108.922,150.955 108.922,150.955 116.438,150.955 "/>
<polygon fill="#EE3838" points="108.922,84.766 108.922,84.771 108.922,84.771 108.922,84.771 108.922,84.766 101.395,63.451 
	108.922,63.451 108.922,63.451 116.438,63.451 "/>
<path fill="#C0C7CF" d="M158.476,98.289c-1.221-3.56-2.977-6.701-5.272-9.399c-2.285-2.692-5.043-4.854-8.277-6.459
	c-3.235-1.606-6.867-2.403-10.894-2.403c-3.903,0-7.404,0.715-10.539,2.137c-3.117,1.447-5.785,3.437-8,5.981
	c-2.196,2.557-3.891,5.567-5.072,9.069c-1.18,3.483-1.765,7.279-1.765,11.4c0-4.121-0.585-7.917-1.76-11.4
	c-1.181-3.502-2.875-6.513-5.083-9.069c-2.209-2.544-4.864-4.534-8-5.981c-3.118-1.422-6.637-2.137-10.533-2.137
	c-4.026,0-7.658,0.797-10.888,2.403c-3.235,1.606-5.992,3.767-8.283,6.459c-2.296,2.698-4.05,5.839-5.272,9.399
	c-1.216,3.584-1.827,7.351-1.827,11.289c0,4.246,0.62,8.267,1.862,12.075c1.247,3.82,3.012,7.144,5.297,10.025
	c2.291,2.858,5.066,5.149,8.325,6.837c3.252,1.694,6.895,2.539,10.916,2.539c2.781,0,5.491-0.425,8.089-1.288
	c2.615-0.862,4.996-2.107,7.139-3.761c2.144-1.653,3.991-3.667,5.556-6.07c0.75-1.157,1.659-2.385,2.469-3.708l-0.006,0.018
	c0,0,2.061-1.931,3.991,0c0.005,0.006,0.005,0.006,0.012,0.006c0.814,1.311,1.718,2.539,2.467,3.684
	c1.56,2.403,3.413,4.417,5.557,6.07c2.132,1.653,4.518,2.899,7.133,3.761c2.609,0.862,5.307,1.288,8.089,1.288
	c4.021,0,7.669-0.845,10.923-2.539c3.252-1.688,6.026-3.979,8.318-6.837c2.291-2.881,4.051-6.205,5.301-10.025
	c1.239-3.808,1.86-7.829,1.86-12.075C160.306,105.64,159.698,101.873,158.476,98.289z M66.482,98.785
	c0.968-2.149,2.237-4.027,3.82-5.657c1.589-1.624,3.438-2.94,5.562-3.944c2.12-1.015,4.399-1.517,6.842-1.517
	c2.782,0,5.285,0.46,7.517,1.358c2.22,0.886,4.121,2.125,5.674,3.708c1.57,1.601,2.793,3.472,3.667,5.639
	c0.886,2.155,1.346,4.481,1.381,6.961H64.848C64.972,103.113,65.52,100.928,66.482,98.785z M150.741,119.916
	c-0.991,2.574-2.308,4.865-3.949,6.884c-1.66,1.995-3.573,3.62-5.758,4.835c-2.189,1.223-4.563,1.836-7.131,1.836
	c-8.822,0-15.76-3.932-18.499-11.772h-6.748l-0.095,0.212c0.023-0.071,0.048-0.13,0.071-0.189h-6.749
	c-2.739,7.835-9.652,11.749-18.475,11.749c-2.567,0-4.941-0.613-7.131-1.836c-2.185-1.216-4.098-2.84-5.75-4.835
	c-1.649-2.02-2.965-4.31-3.944-6.884c-0.987-2.568-1.565-5.178-1.736-7.835h43.809h43.809
	C152.3,114.738,151.716,117.348,150.741,119.916z M116.367,105.333c0.042-2.479,0.495-4.806,1.381-6.961
	c0.881-2.167,2.097-4.038,3.662-5.639c1.563-1.582,3.459-2.822,5.686-3.708c2.225-0.897,4.728-1.358,7.51-1.358
	c2.443,0,4.723,0.502,6.849,1.517c2.12,1.004,3.974,2.32,5.557,3.944c1.587,1.629,2.851,3.508,3.819,5.657
	c0.963,2.143,1.511,4.328,1.635,6.547H116.367z"/>
<line fill="none" x1="108.656" y1="74.111" x2="108.656" y2="129.634"/>
<g>
	<path d="M413.095,390.764c2.959-0.136,5.503-1.269,7.634-3.4c2.292-2.285,3.438-5.048,3.432-8.295c0-0.413-0.019-0.821-0.054-1.223
		l2.354-1.11c0.124,0.75,0.184,1.529,0.184,2.333c0,3.926-1.394,7.268-4.167,10.042c-2.765,2.77-6.1,4.157-10.026,4.151
		c-3.915,0.006-7.269-1.388-10.042-4.162c-2.766-2.764-4.146-6.105-4.146-10.026c0-3.92,1.38-7.262,4.146-10.03
		c2.379-2.374,5.16-3.738,8.365-4.092c0.532-0.047,1.091-0.071,1.677-0.071c0.219-0.005,0.438,0.006,0.644,0.019l-0.006,2.485
		L413.095,390.764z M410.774,367.473c-2.517,0.33-4.723,1.44-6.613,3.323c-2.278,2.279-3.413,5.036-3.424,8.267
		c-0.005,3.235,1.135,5.992,3.424,8.283c1.885,1.884,4.086,2.993,6.608,3.318L410.774,367.473z"/>
	<path d="M438.153,366.434l-8.036-21.846l1.896-1.901l9.624,27.23l-27.23-9.624l1.901-1.896L438.153,366.434z"/>
	<path d="M453.297,350.563c2.951-0.136,5.503-1.264,7.628-3.395c2.29-2.292,3.436-5.055,3.436-8.295c0-0.413-0.017-0.821-0.06-1.223
		l2.362-1.116c0.119,0.756,0.179,1.529,0.179,2.332c0.005,3.926-1.389,7.274-4.17,10.049c-2.762,2.763-6.092,4.15-10.026,4.145
		c-3.907,0.006-7.261-1.387-10.037-4.163c-2.762-2.763-4.145-6.105-4.145-10.025c0-3.92,1.383-7.263,4.145-10.026
		c2.374-2.374,5.161-3.743,8.36-4.091c0.537-0.053,1.1-0.077,1.686-0.077c0.216,0,0.429,0.005,0.643,0.024v2.479V350.563z
		 M450.969,327.271c-2.514,0.337-4.723,1.44-6.61,3.33c-2.273,2.273-3.413,5.03-3.418,8.266c-0.009,3.23,1.126,5.987,3.418,8.278
		c1.888,1.884,4.091,2.994,6.61,3.324V327.271z"/>
	<path d="M462.448,320.263l13.934,13.934l-1.647,1.647l-17.938-17.937l1.647-1.647l1.147,1.151c0.017-2.981,1.016-5.46,2.998-7.451
		c2.119-2.114,4.498-3.176,7.155-3.176s5.015,0.992,7.075,2.982l11.997,11.997l-1.642,1.642l-11.857-11.856
		c-1.522-1.523-3.375-2.273-5.549-2.244c-2.179,0.03-4.026,0.792-5.538,2.297c-1.513,1.512-2.279,3.348-2.319,5.497
		C461.911,318.291,462.089,319.347,462.448,320.263z"/>
	<path d="M478.915,295.783l-7.634-7.634l1.642-1.641l7.639,7.634l3.648-3.655l1.647,1.647l-3.653,3.655l16.293,16.29l-1.646,1.641
		l-16.289-16.29l-3.647,3.655l-1.653-1.647L478.915,295.783z"/>
	<path d="M502.243,289.891c-2.163,0.644-3.781,0.963-4.842,0.968c-1.678,0-3.105-0.59-4.299-1.777
		c-1.194-1.193-1.782-2.627-1.796-4.316c-0.006-1.689,0.58-3.124,1.761-4.304c1.193-1.193,2.573-1.789,4.131-1.789
		c1.526,0.012,2.766,0.501,3.746,1.482l0.094,0.088l-0.864,1.99c-1.05-0.803-2.03-1.21-2.951-1.216
		c-0.915,0-1.747,0.366-2.489,1.109c-0.734,0.733-1.1,1.612-1.104,2.657c-0.009,1.039,0.364,1.937,1.104,2.675
		c0.731,0.732,1.617,1.092,2.668,1.098c0.602-0.005,1.712-0.183,3.318-0.549c2.408-0.709,4.274-1.062,5.584-1.062
		c2.09,0.018,3.851,0.744,5.31,2.196c1.479,1.482,2.23,3.271,2.235,5.343c0.008,2.073-0.731,3.85-2.201,5.32
		c-1.482,1.477-3.254,2.208-5.319,2.202c-2.079,0-3.742-0.631-4.984-1.872l1.204-2.049c1.074,1.075,2.328,1.606,3.767,1.6
		c1.453-0.005,2.682-0.514,3.687-1.523c1.015-1.01,1.522-2.238,1.528-3.684c0-1.44-0.508-2.681-1.542-3.714
		c-1.016-1.009-2.241-1.517-3.673-1.511C505.537,289.253,504.179,289.466,502.243,289.891z"/>
</g>
<g>
	<path d="M151.342,302.786c0.134,2.952,1.267,5.497,3.398,7.628c2.291,2.291,5.051,3.436,8.292,3.436
		c0.416,0,0.82-0.023,1.222-0.047l1.115,2.35c-0.756,0.118-1.531,0.183-2.337,0.177c-3.923,0.006-7.268-1.381-10.046-4.163
		c-2.763-2.763-4.148-6.099-4.145-10.025c-0.003-3.915,1.388-7.268,4.165-10.043c2.764-2.763,6.105-4.145,10.026-4.145
		c3.919,0,7.265,1.375,10.028,4.139c2.376,2.38,3.737,5.167,4.091,8.367c0.044,0.543,0.072,1.098,0.072,1.683
		c0.002,0.218-0.005,0.431-0.018,0.644h-2.483H151.342z M174.631,300.46c-0.331-2.516-1.434-4.724-3.324-6.613
		c-2.275-2.279-5.036-3.413-8.266-3.424c-3.235,0-5.992,1.139-8.281,3.424c-1.886,1.889-2.999,4.097-3.324,6.613H174.631z"/>
	<path d="M180.219,319.932c-0.646-2.155-0.968-3.767-0.968-4.842c-0.003-1.676,0.587-3.105,1.771-4.286
		c1.192-1.192,2.63-1.795,4.319-1.801c1.688-0.005,3.121,0.584,4.302,1.765c1.195,1.193,1.792,2.563,1.792,4.127
		c-0.015,1.517-0.505,2.77-1.479,3.737l-0.092,0.095l-1.989-0.856c0.802-1.051,1.207-2.038,1.216-2.952
		c0.005-0.922-0.366-1.748-1.111-2.492c-0.729-0.727-1.615-1.104-2.656-1.104c-1.04-0.006-1.935,0.366-2.674,1.104
		c-0.732,0.732-1.097,1.624-1.097,2.662c0,0.614,0.184,1.725,0.544,3.331c0.711,2.409,1.062,4.274,1.065,5.585
		c-0.012,2.084-0.744,3.849-2.192,5.302c-1.485,1.481-3.269,2.231-5.344,2.231c-2.075,0.006-3.852-0.726-5.325-2.196
		c-1.473-1.476-2.202-3.247-2.2-5.325c0.003-2.078,0.632-3.737,1.872-4.978l2.048,1.205c-1.075,1.074-1.605,2.326-1.6,3.772
		c0.007,1.44,0.514,2.668,1.524,3.678c1.013,1.009,2.237,1.518,3.681,1.529c1.443,0,2.684-0.514,3.717-1.547
		c1.013-1.016,1.518-2.232,1.518-3.672C180.856,323.226,180.645,321.869,180.219,319.932z"/>
	<path d="M198.646,320.936l1.645,1.647l-2.521,2.521c0.72-0.112,1.471-0.165,2.25-0.165c3.909,0.011,7.244,1.398,10.01,4.168
		c2.774,2.775,4.163,6.117,4.163,10.025c0,3.908-1.391,7.25-4.166,10.025c-2.764,2.763-6.105,4.151-10.017,4.157
		c-3.917,0.006-7.259-1.381-10.035-4.157c-2.765-2.763-4.15-6.104-4.147-10.025c-0.003-0.78,0.051-1.53,0.166-2.255l-10.489,10.491
		l-1.644-1.647L198.646,320.936z M193.59,329.284l-3.434,3.437c-1.251,1.889-1.881,4.021-1.884,6.412
		c0,3.235,1.145,5.998,3.437,8.29c2.284,2.291,5.051,3.436,8.29,3.436c3.24,0,6.004-1.146,8.291-3.436
		c2.292-2.292,3.437-5.055,3.437-8.295c0-3.236-1.145-6.005-3.43-8.29c-2.291-2.291-5.058-3.431-8.295-3.436
		C197.613,327.406,195.479,328.032,193.59,329.284z"/>
	<path d="M223.012,345.308l1.645,1.641l-3.267,3.271c0.826-0.153,1.694-0.224,2.591-0.224c2.9,0,5.147,0.727,6.743,2.173
		l-1.792,1.794c-1.086-0.986-2.734-1.482-4.951-1.476c-3.103-0.018-5.771,1.033-8,3.142l-9.258,9.257l-1.645-1.647L223.012,345.308z
		"/>
	<path d="M236.329,358.622l-17.933,17.931l-1.645-1.641l17.935-17.938L236.329,358.622z M242.549,353.078
		c0.004,0.638-0.217,1.181-0.667,1.629c-0.463,0.467-1.016,0.697-1.653,0.686c-0.644,0-1.181-0.236-1.632-0.686
		c-0.452-0.448-0.686-0.992-0.688-1.629c-0.005-0.637,0.221-1.192,0.686-1.653c0.448-0.449,0.994-0.674,1.635-0.674
		c0.637,0.012,1.184,0.236,1.635,0.686C242.317,351.891,242.541,352.434,242.549,353.078z"/>
	<path d="M244.731,367.023l7.638-7.64l1.64,1.641l-7.636,7.641l3.655,3.654l-1.645,1.647l-3.655-3.66l-16.29,16.296l-1.642-1.643
		l16.29-16.295l-3.655-3.648l1.645-1.648L244.731,367.023z"/>
</g>
</svg>
